<svg width="26" height="26" viewBox="0 0 26 26" fill="none" xmlns="http://www.w3.org/2000/svg">
<path d="M9.49968 24.6663H16.4997C22.333 24.6663 24.6663 22.333 24.6663 16.4997V9.49968C24.6663 3.66634 22.333 1.33301 16.4997 1.33301H9.49968C3.66634 1.33301 1.33301 3.66634 1.33301 9.49968V16.4997C1.33301 22.333 3.66634 24.6663 9.49968 24.6663Z" stroke="#E58E1A" stroke-width="1.5" stroke-linecap="round" stroke-linejoin="round"/>
<path d="M12.9993 17.0827C15.2545 17.0827 17.0827 15.2545 17.0827 12.9993C17.0827 10.7442 15.2545 8.91602 12.9993 8.91602C10.7442 8.91602 8.91602 10.7442 8.91602 12.9993C8.91602 15.2545 10.7442 17.0827 12.9993 17.0827Z" stroke="#E58E1A" stroke-width="1.5" stroke-linecap="round" stroke-linejoin="round"/>
<path d="M19.5752 7.16602H19.5868" stroke="#E58E1A" stroke-width="2" stroke-linecap="round" stroke-linejoin="round"/>
</svg>
