<svg width="20" height="20" viewBox="0 0 20 20" fill="none" xmlns="http://www.w3.org/2000/svg">
<path fill-rule="evenodd" clip-rule="evenodd" d="M10.0004 19.6004C12.5465 19.6004 14.9883 18.589 16.7886 16.7886C18.589 14.9883 19.6004 12.5465 19.6004 10.0004C19.6004 7.45431 18.589 5.01251 16.7886 3.21217C14.9883 1.41182 12.5465 0.400391 10.0004 0.400391C7.45431 0.400391 5.01251 1.41182 3.21217 3.21217C1.41182 5.01251 0.400391 7.45431 0.400391 10.0004C0.400391 12.5465 1.41182 14.9883 3.21217 16.7886C5.01251 18.589 7.45431 19.6004 10.0004 19.6004ZM14.4488 8.44879C14.6674 8.22247 14.7883 7.91935 14.7856 7.60471C14.7829 7.29007 14.6567 6.9891 14.4342 6.76661C14.2117 6.54412 13.9107 6.41792 13.5961 6.41518C13.2814 6.41245 12.9783 6.5334 12.752 6.75199L8.80039 10.7036L7.24879 9.15199C7.02247 8.9334 6.71934 8.81245 6.40471 8.81518C6.09007 8.81792 5.7891 8.94412 5.56661 9.16661C5.34412 9.3891 5.21792 9.69007 5.21518 10.0047C5.21245 10.3193 5.3334 10.6225 5.55199 10.8488L7.95199 13.2488C8.17702 13.4738 8.48219 13.6001 8.80039 13.6001C9.11859 13.6001 9.42376 13.4738 9.64879 13.2488L14.4488 8.44879Z" fill="#E58E1A"/>
</svg>
